# xmcd
#
# Track frame offsets:
#	150
#	15450
#	29600
#	43400
#	58950
#	72300
#	85325
#	103125
#	120425
#	140025
#	158300
#	171450
#	189175
#	201650
#	218300
#	232000
#	249725
#	265550
#
# Disc length: 3835 seconds
#
# Revision: 0
# Processed by: cddbd v1.5.1PL0 Copyright (c) Steve Scherf et al.
# Submitted via: MusicWizard 7.1.1b
#
DISCID=060ef912
DTITLE=Various Artist - tolle scheibe folge 3 cd/1 [CD 2/2)
DYEAR=1900
DGENRE=
TTITLE0=Barry White - Your're The First, The Last, My Everything
TTITLE1=Middle Of The Road - Soley Soley
TTITLE2=Brotherhood Of Man - Save Your Kisses For Me
TTITLE3=The Cats - Let's Dance
TTITLE4=Three Degrees - When Will I See You Again
TTITLE5=Andy Kim - Be My Baby
TTITLE6=Chris Norman and Suzi Quatro - Stumblin' In
TTITLE7=Pop Tops - Mamy Blue
TTITLE8=Alain Barriere and Noelle Cordier - Tu T'en Vas
TTITLE9=The Hollies - The Air That I Breathe
TTITLE10=Manhattan Transfer - Chanson D'amour
TTITLE11=Demis Roussos - Goodbye My Love, Goodbye
TTITLE12=The New Seekers - Beg, Steal Or Borrow
TTITLE13=Bernie Paul - Lucky
TTITLE14=Pickettywitch - That Same Old Feeling
TTITLE15=Mouth and Mcneal - Hello A
TTITLE16=Mungo Jerry - In The Summertime
TTITLE17=T. Rex - Hot Love
EXTD=
EXTT0=Barry White
EXTT1=Middle of the Road
EXTT2=Brotherhood of Man
EXTT3=The Cats
EXTT4=Three Degrees
EXTT5=Andy Kim
EXTT6=Chris Norman and Suzi Quatro
EXTT7=Pop Tops
EXTT8=Alain Barriere and Noelle Cordier
EXTT9=The Hollies
EXTT10=Manhattan Transfer
EXTT11=Demis Roussos
EXTT12=
EXTT13=Bernie Paul
EXTT14=Pickettywitch
EXTT15=Mouth and McNeal
EXTT16=Mungo Jerry
EXTT17=T. Rex
PLAYORDER=
